<?xml version="1.0" encoding="utf-8"?>
<!-- Generator: Adobe Illustrator 23.0.3, SVG Export Plug-In . SVG Version: 6.00 Build 0)  -->
<svg version="1.1" id="Calque_1" xmlns="http://www.w3.org/2000/svg" xmlns:xlink="http://www.w3.org/1999/xlink" x="0px" y="0px"
	 viewBox="0 0 66 65" style="enable-background:new 0 0 66 65;" xml:space="preserve">
<style type="text/css">
	.st0{fill:#E41B47;}
</style>
<path class="st0" d="M56.4,9.6C50,3.2,42.2,0,33,0C23.8,0,16,3.2,9.6,9.6c-6.4,6.4-9.6,14-9.6,22.9c0,8.9,3.2,16.5,9.6,22.9
	C16,61.8,23.8,65,33,65c9.2,0,17-3.2,23.4-9.6c6.4-6.4,9.6-14,9.6-22.9C66,23.6,62.8,16,56.4,9.6z M50.6,50.6
	C45.6,55.6,39.8,58,33,58c-6.8,0-12.6-2.5-17.5-7.4c-4.9-4.9-7.4-11-7.4-18.2c0-7.1,2.5-13.1,7.4-18.1C20.4,9.4,26.2,7,33,7
	c6.8,0,12.6,2.5,17.6,7.4c4.9,5,7.4,11,7.4,18.1C58,39.6,55.5,45.7,50.6,50.6z M28.5,36.4h9.7v9.7h-9.7V36.4z M28.5,19.1h9.7v9.7
	h-9.7V19.1z"/>
</svg>
